<mxfile host="app.diagrams.net" modified="2024-02-20T21:14:55.180Z" agent="Mozilla/5.0 (Windows NT 10.0; Win64; x64) AppleWebKit/537.36 (KHTML, like Gecko) Chrome/121.0.0.0 Safari/537.36 Edg/121.0.0.0" version="23.1.5" etag="9HHLih3NLWdfh5Vh6i4Y" type="github">
  <diagram name="PÃ¡gina-1" id="nWcSSfpuKsw1U8wrcWzn">
    <mxGraphModel>
      <root>
        <mxCell id="0" />
        <mxCell id="1" parent="0" />
      </root>
    </mxGraphModel>
  </diagram>
</mxfile>
